<?xml version="1.0" encoding="UTF-8"?>
<svg version="1.1" xmlns="http://www.w3.org/2000/svg" width="200" height="200">
<path d="M0 0 C5.28 0 10.56 0 16 0 C16 4.95 16 9.9 16 15 C20.95 15 25.9 15 31 15 C31 19.95 31 24.9 31 30 C36.28 30 41.56 30 47 30 C47 35.28 47 40.56 47 46 C51.62 46 56.24 46 61 46 C61 40.72 61 35.44 61 30 C66.28 30 71.56 30 77 30 C77 25.05 77 20.1 77 15 C81.95 15 86.9 15 92 15 C92 10.05 92 5.1 92 0 C97.28 0 102.56 0 108 0 C108 5.28 108 10.56 108 16 C103.05 16 98.1 16 93 16 C93 20.95 93 25.9 93 31 C88.05 31 83.1 31 78 31 C78 36.28 78 41.56 78 47 C72.72 47 67.44 47 62 47 C62 51.62 62 56.24 62 61 C67.28 61 72.56 61 78 61 C78 66.28 78 71.56 78 77 C82.95 77 87.9 77 93 77 C93 81.95 93 86.9 93 92 C97.95 92 102.9 92 108 92 C108 97.28 108 102.56 108 108 C102.72 108 97.44 108 92 108 C92 103.05 92 98.1 92 93 C87.05 93 82.1 93 77 93 C77 88.05 77 83.1 77 78 C71.72 78 66.44 78 61 78 C61 72.72 61 67.44 61 62 C56.38 62 51.76 62 47 62 C47 67.28 47 72.56 47 78 C41.72 78 36.44 78 31 78 C31 82.95 31 87.9 31 93 C26.05 93 21.1 93 16 93 C16 97.95 16 102.9 16 108 C10.72 108 5.44 108 0 108 C0 102.72 0 97.44 0 92 C4.95 92 9.9 92 15 92 C15 87.05 15 82.1 15 77 C19.95 77 24.9 77 30 77 C30 71.72 30 66.44 30 61 C35.28 61 40.56 61 46 61 C46 56.38 46 51.76 46 47 C40.72 47 35.44 47 30 47 C30 41.72 30 36.44 30 31 C25.05 31 20.1 31 15 31 C15 26.05 15 21.1 15 16 C10.05 16 5.1 16 0 16 C0 10.72 0 5.44 0 0 Z " fill="#000000" transform="translate(46,46)"/>
</svg>
